<svg version="1.1" id="Layer_1" xmlns="http://www.w3.org/2000/svg" xmlns:xlink="http://www.w3.org/1999/xlink" x="0px" y="0px"
	 width="100%" viewBox="0 0 496 496" enable-background="new 0 0 496 496" xml:space="preserve">
<path fill="#000000" opacity="1.000000" stroke="none" 
	d="
M322.463104,343.540283 
	C333.421387,349.963440 344.795868,353.532593 357.214020,352.497467 
	C357.703430,355.932190 355.639008,355.938171 353.890350,356.354980 
	C333.656982,361.177948 315.357544,356.392548 298.375397,345.156128 
	C296.033722,343.606750 293.839142,341.834991 291.212341,339.897644 
	C289.689636,342.839661 290.619843,345.688934 290.297180,348.361450 
	C290.126434,349.775909 290.604065,351.661102 288.562439,352.007629 
	C286.522186,352.353882 286.135254,350.722260 285.921143,349.162964 
	C285.725769,347.740143 285.329651,346.446716 283.574860,346.526947 
	C281.882172,346.604370 281.448914,347.893402 281.317108,349.314880 
	C281.163422,350.972900 280.680267,352.368958 278.630798,352.036133 
	C276.893890,351.754059 276.831879,350.252228 276.819519,348.924652 
	C276.791687,345.927917 276.828491,342.929077 276.917480,339.933411 
	C276.955658,338.648926 277.582306,337.689178 278.995422,337.556183 
	C280.141113,337.448364 280.969513,337.958710 281.146271,339.124146 
	C281.477020,341.304535 282.313995,343.757141 284.749329,341.986328 
	C286.582031,340.653687 287.514313,337.418243 285.592926,335.294250 
	C281.826660,331.130890 278.014282,326.989807 271.743774,326.299072 
	C260.097168,325.016144 249.061356,321.504120 238.247360,316.959534 
	C232.346848,314.479858 229.966461,310.601746 229.674744,304.509155 
	C229.205917,294.716675 228.318237,284.944855 227.716034,275.157623 
	C227.587677,273.071411 227.144226,271.304749 225.689468,269.717163 
	C218.261520,261.611023 210.954559,253.393219 203.466797,245.343292 
	C201.444550,243.169205 198.952408,241.428452 196.649628,239.520554 
	C195.459579,238.534576 193.091324,238.243393 193.917007,236.011734 
	C194.669022,233.979248 196.797897,234.721024 198.333496,234.749908 
	C205.182343,234.878769 211.990707,234.666031 218.593246,232.642502 
	C221.283890,231.817886 224.023193,230.944595 226.485306,229.619537 
	C234.722626,225.186432 235.204239,223.519745 233.006104,214.669067 
	C230.161575,203.215698 230.340454,191.883087 235.898743,181.149078 
	C237.319901,178.404587 237.158157,176.348785 235.333771,173.872513 
	C230.325577,167.074753 223.648773,163.583603 215.317230,163.382065 
	C207.990585,163.204849 200.644501,163.594940 193.329636,163.251694 
	C188.450363,163.022751 187.044205,164.849365 187.063950,169.572922 
	C187.215836,205.893509 187.156494,242.214966 187.161621,278.536163 
	C187.162552,285.200562 187.080292,291.866058 187.176605,298.529053 
	C187.296570,306.827881 191.827484,311.757050 200.079086,312.829132 
	C201.622055,313.029602 203.561768,312.664215 203.925766,315.714111 
	C187.108337,315.714111 170.420013,315.714111 153.508347,315.714111 
	C153.805725,312.647614 155.870605,312.975403 157.573624,312.782135 
	C165.445419,311.888855 170.661072,306.337433 170.668411,298.503479 
	C170.707397,256.850677 170.704346,215.197754 170.666931,173.544922 
	C170.659912,165.725037 165.707108,159.951599 158.054886,158.463089 
	C156.638519,158.187576 155.009796,158.759506 153.677521,157.318878 
	C153.608307,154.634583 155.701035,154.813538 157.417892,154.844604 
	C179.723770,155.248428 202.060196,153.748978 224.335739,155.734680 
	C231.569824,156.379562 238.392075,158.771362 244.222702,163.131561 
	C247.167572,165.333786 249.208740,165.687408 252.548248,163.705338 
	C268.688934,154.125549 286.428375,152.656357 304.664246,154.242325 
	C316.782501,155.296234 328.724762,157.213791 340.344696,160.985382 
	C343.788055,162.103027 345.166870,163.760895 345.539246,167.615540 
	C346.359528,176.106796 346.208923,184.584946 346.305756,193.070068 
	C346.325897,194.837585 347.552185,197.380936 344.632263,198.098068 
	C342.001251,198.744217 341.320892,196.477783 340.424408,194.718048 
	C335.184357,184.431854 328.063751,175.675507 318.448090,169.267029 
	C301.468994,157.951111 283.452179,155.527161 264.466339,163.967056 
	C263.109192,164.570374 261.841949,165.415924 260.616669,166.269135 
	C254.213821,170.727753 254.199036,171.120499 257.045135,178.168274 
	C260.131714,185.811630 261.922028,193.711929 260.455017,202.012894 
	C259.720795,206.167542 261.163361,208.758224 264.887543,210.953171 
	C277.636566,218.467163 291.582611,222.938904 305.483215,227.551804 
	C313.706482,230.280685 321.882660,233.098404 329.641632,237.001480 
	C352.937592,248.720230 358.867310,271.245026 350.900818,293.184723 
	C343.892822,312.484619 328.484039,321.733490 309.447937,326.177795 
	C307.553070,326.620178 305.503845,326.628693 303.564972,328.430359 
	C309.158417,334.300354 315.389832,339.141785 322.463104,343.540283 
M334.914215,293.261749 
	C335.765991,281.123413 330.770691,272.077332 320.642242,265.498291 
	C311.156403,259.336670 300.553772,255.866394 289.989166,252.317062 
	C277.685974,248.183655 264.869385,245.222717 253.731705,238.340149 
	C248.353394,235.016586 244.197083,233.468033 239.017487,238.428940 
	C236.425903,240.911102 232.476456,241.580368 228.873962,242.362335 
	C227.463226,242.668533 225.848007,242.613968 224.913940,244.562607 
	C225.745743,245.634613 226.568375,246.865173 227.556946,247.943634 
	C247.485306,269.684631 267.569672,291.285004 287.288910,313.213776 
	C292.861023,319.410278 298.443207,322.290436 307.217804,320.957123 
	C321.467896,318.791779 333.459442,308.024719 334.914215,293.261749 
M246.094116,294.472351 
	C248.161896,296.759216 250.229660,299.046082 252.297424,301.332947 
	C252.552856,301.103119 252.808273,300.873260 253.063690,300.643433 
	C249.838135,296.822968 246.612564,293.002533 243.387009,289.182098 
	C243.149490,289.351746 242.911972,289.521423 242.674469,289.691101 
	C243.665405,291.114899 244.656342,292.538696 246.094116,294.472351 
z"/>
<path fill="#000000" opacity="1.000000" stroke="none" 
	d="
M163.690552,362.551544 
	C165.486267,366.778931 160.693604,370.789246 164.587921,374.430176 
	C159.810715,377.200745 159.754227,371.009064 156.845062,370.935883 
	C155.453445,371.289459 155.406265,372.356445 155.217407,373.315552 
	C154.942200,374.713165 154.085785,375.276337 152.717117,375.075653 
	C151.552490,374.904968 150.949234,374.066681 150.928741,373.015747 
	C150.860916,369.534149 150.826767,366.047394 150.947815,362.568451 
	C151.012375,360.713531 152.495438,360.076691 154.087753,360.022156 
	C157.392517,359.908844 160.763947,359.677307 163.690552,362.551544 
z"/>
<path fill="#000000" opacity="1.000000" stroke="none" 
	d="
M151.794586,338.004730 
	C154.885834,336.475403 157.654968,337.197357 160.425735,337.646912 
	C163.849899,338.202454 165.078659,340.606628 163.984222,343.412811 
	C162.870667,346.268066 162.441391,348.685394 164.901733,351.063385 
	C159.853516,354.361328 159.662628,347.977631 156.916565,347.799774 
	C155.526642,348.259918 155.410858,349.289703 155.224304,350.255310 
	C154.958313,351.632080 154.131699,352.239746 152.761673,352.079926 
	C151.293076,351.908600 150.870636,350.799591 150.880051,349.591919 
	C150.909485,345.817169 150.158417,341.996216 151.794586,338.004730 
z"/>
<path fill="#000000" opacity="1.000000" stroke="none" 
	d="
M244.753326,363.026794 
	C245.628830,360.149963 247.437088,359.528809 248.016495,362.281372 
	C248.750977,365.770782 248.664795,369.617798 248.041885,373.153687 
	C247.471283,376.392731 245.074478,375.717590 243.321686,373.819214 
	C242.117264,372.514740 241.287018,370.864777 240.271729,369.342560 
	C239.869186,369.699188 239.523972,369.857483 239.436401,370.106445 
	C238.838272,371.806946 240.183578,374.913147 237.339478,374.916443 
	C234.156967,374.920166 235.269547,371.773376 235.092026,369.831757 
	C234.926758,368.024323 235.041229,366.184113 235.128067,364.362885 
	C235.205780,362.733459 235.046585,360.837219 237.260620,360.424072 
	C239.234787,360.055725 240.247879,361.401031 241.133850,362.905579 
	C242.025284,364.419464 243.003738,365.882080 244.727966,368.605225 
	C244.727966,365.911987 244.727966,364.652924 244.753326,363.026794 
z"/>
<path fill="#000000" opacity="1.000000" stroke="none" 
	d="
M261.306152,343.882812 
	C259.935822,340.719635 260.924286,338.786713 263.686646,337.615631 
	C266.515930,336.416138 269.217133,336.676208 271.674561,338.492279 
	C272.471252,339.081055 273.038422,340.085663 272.385529,341.104645 
	C271.792572,342.030090 270.789673,342.165985 269.731110,341.934204 
	C268.517151,341.668427 267.564667,340.228821 265.655396,341.334015 
	C268.507172,343.896301 275.077820,343.417603 272.966797,349.708649 
	C272.075684,352.364319 269.519043,352.753296 267.213715,352.772888 
	C264.255768,352.798065 261.247467,352.423553 260.344788,348.955292 
	C262.987183,345.083710 265.563568,350.612701 268.276367,348.307556 
	C266.947083,345.340454 262.895569,346.784973 261.306152,343.882812 
z"/>
<path fill="#000000" opacity="1.000000" stroke="none" 
	d="
M119.446861,368.035156 
	C117.050377,365.291351 117.057762,362.821503 119.905098,361.043762 
	C122.834839,359.214539 125.963531,359.361877 128.761200,361.551697 
	C129.536316,362.158417 130.067871,363.141937 129.360840,364.184570 
	C128.841263,364.950714 128.022705,365.073944 127.141724,364.939545 
	C125.884689,364.747803 125.002174,363.205902 123.147331,364.074799 
	C123.884460,366.085083 125.850243,366.103485 127.338150,366.714813 
	C129.474792,367.592712 130.424698,369.164948 130.264130,371.409607 
	C130.097260,373.742554 128.689041,375.037292 126.480629,375.396454 
	C122.828659,375.990387 119.265610,376.218658 117.445145,372.102386 
	C120.109932,368.229889 122.710022,373.762024 125.369843,371.443817 
	C124.469337,368.556946 121.118340,370.024353 119.446861,368.035156 
z"/>
<path fill="#000000" opacity="1.000000" stroke="none" 
	d="
M191.692261,342.319702 
	C193.340561,343.002136 194.858063,343.333313 196.111450,344.097626 
	C198.754303,345.709167 199.051758,349.417084 196.849686,351.338226 
	C193.686401,354.098114 187.771210,352.828522 185.506683,348.888977 
	C187.686920,344.675049 190.771362,351.061096 193.141983,348.304382 
	C192.569321,345.773071 190.153870,346.621155 188.711670,345.778503 
	C186.646301,344.571686 185.224197,342.998962 185.947250,340.526215 
	C186.800812,337.607147 189.493347,337.151794 191.970551,337.010529 
	C194.141815,336.886658 196.591049,337.373352 197.331299,339.780182 
	C198.015335,342.004272 196.325638,342.167908 194.625809,341.773804 
	C193.486969,341.509705 192.568329,339.727112 191.179047,341.274200 
	C191.097305,341.365234 191.126389,341.600952 191.171768,341.748444 
	C191.218536,341.900513 191.348328,342.027008 191.692261,342.319702 
z"/>
<path fill="#000000" opacity="1.000000" stroke="none" 
	d="
M282.244812,366.174500 
	C282.232635,368.455170 282.269012,370.279297 282.192688,372.098755 
	C282.136505,373.437103 281.997925,374.865051 280.239075,375.061279 
	C278.479736,375.257538 277.976227,374.062988 277.805115,372.613068 
	C277.622528,371.066010 277.370880,369.497681 275.312012,369.614441 
	C273.591492,369.712006 273.338715,371.113770 273.163879,372.477814 
	C272.983215,373.887573 272.588654,375.142639 270.817810,375.061829 
	C268.994171,374.978668 268.812500,373.563660 268.780762,372.220154 
	C268.710388,369.239990 268.717682,366.257172 268.744537,363.275879 
	C268.757202,361.874420 269.034393,360.555176 270.843964,360.511993 
	C272.250183,360.478424 272.945740,361.326355 273.121094,362.630890 
	C273.331146,364.193420 273.604065,365.664642 275.695374,365.533447 
	C277.524963,365.418671 277.595856,364.008240 277.783356,362.680817 
	C278.010162,361.075256 279.065582,360.136688 280.530731,360.600800 
	C283.200012,361.446320 281.931641,363.908386 282.244812,366.174500 
z"/>
<path fill="#000000" opacity="1.000000" stroke="none" 
	d="
M238.060547,347.051361 
	C239.167511,348.666077 240.762787,349.631042 240.545425,351.633972 
	C236.147568,354.010193 235.481750,348.273193 232.461578,347.829468 
	C231.216003,348.346924 231.402176,349.477386 231.210236,350.409698 
	C230.973541,351.559448 230.329285,352.150452 229.143448,352.066772 
	C227.924118,351.980774 227.312500,351.095551 227.285675,350.082062 
	C227.193512,346.600769 227.213425,343.114319 227.291824,339.632111 
	C227.315109,338.598236 227.854691,337.705963 229.036423,337.516296 
	C231.909256,337.055206 230.649063,340.386230 232.346085,341.168884 
	C234.993546,340.204468 236.454147,336.062592 240.349991,337.843872 
	C240.438370,341.211456 233.873505,342.547852 238.060547,347.051361 
z"/>
<path fill="#000000" opacity="1.000000" stroke="none" 
	d="
M214.617355,351.298798 
	C211.953049,352.759399 210.960464,351.651764 210.732162,349.338989 
	C210.592529,347.924530 210.203140,346.639221 208.506790,346.519592 
	C206.721573,346.393646 206.326859,347.653137 206.163712,349.094696 
	C205.988388,350.643646 205.729950,352.282959 203.616745,351.998322 
	C201.554123,351.720428 201.759476,349.925323 201.718521,348.476532 
	C201.643280,345.813873 201.664627,343.147522 201.693573,340.483246 
	C201.708527,339.106537 201.859665,337.719421 203.671783,337.572296 
	C205.102432,337.456146 205.781219,338.338501 206.045044,339.616638 
	C206.311691,340.908417 206.314484,342.413574 208.149475,342.509491 
	C210.164902,342.614777 210.580414,341.186890 210.830109,339.597382 
	C211.037048,338.280151 211.766205,337.461853 213.197632,337.591217 
	C214.983719,337.752686 215.238846,339.094055 215.210251,340.488434 
	C215.138763,343.973724 214.991318,347.457489 214.617355,351.298798 
z"/>
<path fill="#000000" opacity="1.000000" stroke="none" 
	d="
M263.349701,364.713074 
	C261.473816,364.575562 259.895660,364.286926 257.554016,363.858643 
	C260.170410,367.192505 266.916595,366.523438 264.850494,372.541718 
	C263.861267,375.423248 261.106445,375.768280 258.633179,375.713501 
	C255.892853,375.652802 252.868088,375.423126 252.378586,371.819550 
	C254.873596,368.505310 257.635254,373.869141 260.135742,371.337585 
	C259.230682,368.764618 256.651062,369.640686 255.088943,368.566223 
	C253.000122,367.129395 252.065735,365.234009 253.045746,363.022552 
	C254.421600,359.917969 257.366638,359.581299 260.268585,360.217010 
	C262.371887,360.677795 265.242645,361.017731 263.349701,364.713074 
z"/>
<path fill="#000000" opacity="1.000000" stroke="none" 
	d="
M252.629471,336.989319 
	C254.721985,337.134735 256.428040,337.201599 256.807892,339.458832 
	C254.831711,342.351166 251.459579,340.049713 248.824203,341.440735 
	C250.677750,344.159271 254.843445,341.221344 255.936584,344.739960 
	C254.503082,347.892609 250.612610,344.845734 249.038757,347.701385 
	C250.856277,350.566254 255.475204,346.985718 257.068787,351.321716 
	C253.064240,352.809113 248.281723,353.789703 245.781876,351.309479 
	C242.953491,348.503296 244.280716,343.318604 245.011948,339.375061 
	C245.725555,335.526489 249.669830,337.535156 252.629471,336.989319 
z"/>
<path fill="#000000" opacity="1.000000" stroke="none" 
	d="
M144.345032,360.645203 
	C150.048065,363.121033 147.089478,367.710388 146.744461,371.211243 
	C146.352463,375.188538 142.691849,375.985901 139.046402,375.583954 
	C135.182846,375.157867 133.634415,372.766571 133.648972,369.106415 
	C133.657562,366.949188 133.681915,364.791321 133.750198,362.635345 
	C133.785004,361.535980 134.318481,360.686249 135.471130,360.539703 
	C136.908661,360.356934 137.676498,361.254547 137.808121,362.540222 
	C138.027374,364.682159 138.024567,366.846100 138.214813,368.991974 
	C138.322693,370.208771 138.817719,371.337860 140.239426,371.440338 
	C141.957779,371.564178 142.409592,370.326843 142.708572,368.918274 
	C143.278595,366.232697 141.795486,363.229889 144.345032,360.645203 
z"/>
<path fill="#000000" opacity="1.000000" stroke="none" 
	d="
M194.856842,364.301086 
	C195.862518,367.952606 198.028091,370.901276 197.849075,374.438629 
	C194.378082,376.850494 193.739349,371.724701 190.838593,372.216949 
	C188.513779,372.611450 187.723785,376.775421 184.206650,374.363007 
	C184.896576,370.057007 186.654007,365.940094 188.558945,362.000061 
	C190.084717,358.844299 192.676590,359.736603 194.856842,364.301086 
z"/>
<path fill="#000000" opacity="1.000000" stroke="none" 
	d="
M228.014099,363.199829 
	C229.372162,367.116119 230.579178,370.681976 232.296494,375.755402 
	C227.068909,373.341492 222.698624,370.553558 218.313248,375.533234 
	C218.455307,370.022888 219.853485,365.597870 222.178894,361.785858 
	C223.885330,358.988586 226.398483,360.036865 228.014099,363.199829 
z"/>
<path fill="#000000" opacity="1.000000" stroke="none" 
	d="
M179.976746,337.641602 
	C183.076599,341.041901 182.902786,348.709900 179.961136,351.160095 
	C177.534546,353.181244 174.672714,352.998291 171.918961,352.055511 
	C168.789734,350.984253 168.306335,348.205994 168.753448,345.495575 
	C169.187073,342.866974 166.782593,338.266998 170.690628,338.056732 
	C173.761322,337.891479 171.813202,342.409515 172.304504,344.787994 
	C172.654434,346.482086 172.736038,348.358521 174.842331,348.483002 
	C177.367050,348.632172 177.392105,346.581726 177.726730,344.699341 
	C178.150970,342.312775 176.160324,339.240234 179.976746,337.641602 
z"/>
<path fill="#000000" opacity="1.000000" stroke="none" 
	d="
M201.549225,360.836578 
	C204.254913,359.907959 205.074158,361.454987 205.711044,363.331696 
	C206.291382,365.041870 206.942932,366.727905 207.598679,368.521881 
	C210.714386,366.573730 208.346512,359.992371 214.882523,360.621124 
	C214.000687,365.419647 212.393600,369.544312 210.407471,373.471100 
	C209.096069,376.063843 206.685135,376.132263 205.470886,373.588074 
	C203.580566,369.627258 201.367020,365.670044 201.549225,360.836578 
z"/>
<path fill="#000000" opacity="1.000000" stroke="none" 
	d="
M177.396408,361.070251 
	C179.674835,360.122070 181.862106,359.837616 180.567856,362.928772 
	C179.045212,366.565308 176.291092,369.687317 176.302658,373.940277 
	C176.304764,374.710205 175.593781,375.055267 174.911316,375.110870 
	C174.037476,375.182068 172.929092,374.865387 172.999756,373.969086 
	C173.396149,368.942169 169.323883,365.625793 167.989349,361.220734 
	C171.460022,358.904053 172.384888,362.273010 174.203552,363.573364 
	C175.835220,363.680664 176.123795,362.000397 177.396408,361.070251 
z"/>
<path fill="#000000" opacity="1.000000" stroke="none" 
	d="
M290.277313,365.254059 
	C290.262390,367.850769 290.289856,369.993805 290.216187,372.133392 
	C290.170105,373.472839 290.000824,374.933502 288.240448,375.024261 
	C286.170837,375.130920 285.916016,373.533600 285.861755,371.998016 
	C285.774475,369.529266 285.737000,367.055542 285.787781,364.586212 
	C285.824280,362.811920 285.608521,360.495758 288.227936,360.588257 
	C290.997162,360.686066 290.034027,363.160248 290.277313,365.254059 
z"/>
<path fill="#000000" opacity="1.000000" stroke="none" 
	d="
M219.405334,341.486023 
	C219.379608,339.472168 218.937698,337.392029 221.539917,337.586548 
	C223.666489,337.745453 223.263077,339.698456 223.312408,341.111084 
	C223.393494,343.433105 223.422653,345.764282 223.307220,348.083282 
	C223.231003,349.614594 223.797287,351.906250 221.369858,351.946320 
	C218.630630,351.991577 219.155228,349.521149 219.106216,347.829620 
	C219.048798,345.847504 219.300919,343.856415 219.405334,341.486023 
z"/>
</svg>